<svg xmlns="http://www.w3.org/2000/svg" viewBox="0 0 900 675" role="img" aria-labelledby="t2">
  <title id="t2">Search and find any transaction quickly</title>
  <defs>
    <linearGradient id="bg2" x1="0" y1="0" x2="1" y2="1">
      <stop offset="0%" style="stop-color:#ecfdf5"/>
      <stop offset="100%" style="stop-color:#f8fafc"/>
    </linearGradient>
  </defs>
  <rect width="900" height="675" fill="url(#bg2)"/>
  <ellipse cx="450" cy="360" rx="320" ry="200" fill="#149184" opacity="0.08"/>
  <circle cx="380" cy="300" r="120" fill="none" stroke="#149184" stroke-width="14"/>
  <line x1="470" y1="390" x2="560" y2="480" stroke="#149184" stroke-width="14" stroke-linecap="round"/>
  <rect x="290" y="230" width="180" height="36" rx="18" fill="#fff" stroke="#cbd5e1"/>
  <text x="310" y="254" fill="#64748b" font-family="system-ui,Segoe UI,sans-serif" font-size="13">Search merchant or amount</text>
  <rect x="290" y="280" width="180" height="40" rx="10" fill="#fff" stroke="#e2e8f0"/>
  <text x="302" y="306" fill="#0f172a" font-family="system-ui,Segoe UI,sans-serif" font-size="12" font-weight="600">$19.60, Food</text>
  <rect x="290" y="330" width="180" height="40" rx="10" fill="#fff" stroke="#e2e8f0"/>
  <text x="302" y="356" fill="#0f172a" font-family="system-ui,Segoe UI,sans-serif" font-size="12" font-weight="600">$71.10, Home</text>
  <g transform="translate(620, 140)">
    <rect width="140" height="180" rx="10" fill="#fff" stroke="#94a3b8" opacity="0.9"/>
    <path d="M0 20h140M0 160h140" stroke="#e2e8f0"/>
    <text x="70" y="95" text-anchor="middle" fill="#149184" font-family="system-ui,Segoe UI,sans-serif" font-size="10" font-weight="700">PROOF</text>
  </g>
  <g transform="translate(680, 320) rotate(6)">
    <rect width="120" height="160" rx="10" fill="#fff" stroke="#cbd5e1"/>
    <rect x="16" y="40" width="88" height="6" rx="2" fill="#e2e8f0"/>
    <rect x="16" y="54" width="72" height="6" rx="2" fill="#e2e8f0"/>
  </g>
</svg>
