<svg xmlns="http://www.w3.org/2000/svg" viewBox="0 0 900 675" role="img" aria-labelledby="t3">
  <title id="t3">Budget guardrails and category pace</title>
  <rect width="900" height="675" fill="#0f172a"/>
  <circle cx="450" cy="340" r="220" fill="#1e293b"/>
  <path d="M450 120 A220 220 0 0 1 650 280" fill="none" stroke="#22c55e" stroke-width="28" stroke-linecap="round"/>
  <path d="M650 280 A220 220 0 0 1 580 520" fill="none" stroke="#94a3b8" stroke-width="28" stroke-linecap="round"/>
  <path d="M580 520 A220 220 0 0 1 320 520" fill="none" stroke="#f472b6" stroke-width="28" stroke-linecap="round"/>
  <path d="M320 520 A220 220 0 0 1 450 120" fill="none" stroke="#38bdf8" stroke-width="28" stroke-linecap="round"/>
  <text x="450" y="300" text-anchor="middle" fill="#f8fafc" font-family="system-ui,Segoe UI,sans-serif" font-size="14" font-weight="600">Budget left</text>
  <text x="450" y="350" text-anchor="middle" fill="#fff" font-family="system-ui,Segoe UI,sans-serif" font-size="42" font-weight="800">$151</text>
  <text x="450" y="385" text-anchor="middle" fill="#94a3b8" font-family="system-ui,Segoe UI,sans-serif" font-size="13">This month</text>
  <rect x="260" y="520" width="100" height="36" rx="18" fill="#1e293b" stroke="#334155"/>
  <text x="310" y="543" text-anchor="middle" fill="#e2e8f0" font-family="system-ui,Segoe UI,sans-serif" font-size="12">Food -$17</text>
  <rect x="400" y="520" width="100" height="36" rx="18" fill="#1e293b" stroke="#334155"/>
  <text x="450" y="543" text-anchor="middle" fill="#e2e8f0" font-family="system-ui,Segoe UI,sans-serif" font-size="12">Fun -$15</text>
  <rect x="540" y="520" width="100" height="36" rx="18" fill="#1e293b" stroke="#334155"/>
  <text x="590" y="543" text-anchor="middle" fill="#e2e8f0" font-family="system-ui,Segoe UI,sans-serif" font-size="12">Shop $22</text>
</svg>
