<svg xmlns="http://www.w3.org/2000/svg" viewBox="0 0 900 675" role="img" aria-labelledby="t1">
  <title id="t1">Mobile expense list with receipt capture, not a spreadsheet</title>
  <rect width="900" height="675" fill="#0a0a0a"/>
  <defs>
    <linearGradient id="edge" x1="0" y1="0.5" x2="1" y2="0.5">
      <stop offset="0%" style="stop-color:#149184;stop-opacity:0.2"/>
      <stop offset="40%" style="stop-color:#0a0a0a;stop-opacity:0"/>
    </linearGradient>
  </defs>
  <rect width="900" height="675" fill="url(#edge)"/>
  <g transform="translate(120, 180) rotate(-8)">
    <rect width="200" height="260" rx="12" fill="#f8fafc" stroke="#cbd5e1" stroke-width="2"/>
    <rect x="24" y="40" width="152" height="8" rx="2" fill="#e2e8f0"/>
    <rect x="24" y="58" width="120" height="8" rx="2" fill="#e2e8f0"/>
    <rect x="24" y="76" width="140" height="8" rx="2" fill="#e2e8f0"/>
    <text x="100" y="120" text-anchor="middle" fill="#149184" font-family="system-ui,Segoe UI,sans-serif" font-size="11" font-weight="700">RECEIPT</text>
  </g>
  <rect x="480" y="80" width="320" height="520" rx="36" fill="#1e293b"/>
  <rect x="495" y="100" width="290" height="480" rx="28" fill="#fff"/>
  <rect x="495" y="100" width="290" height="48" fill="#149184"/>
  <text x="520" y="132" fill="#fff" font-family="system-ui,Segoe UI,sans-serif" font-size="14" font-weight="700">Records</text>
  <rect x="512" y="168" width="256" height="56" rx="12" fill="#f8fafc" stroke="#e2e8f0"/>
  <text x="528" y="194" fill="#0f172a" font-family="system-ui,Segoe UI,sans-serif" font-size="13" font-weight="600">Groceries</text>
  <text x="528" y="210" fill="#94a3b8" font-family="system-ui,Segoe UI,sans-serif" font-size="11">Whole Foods</text>
  <text x="744" y="202" text-anchor="end" fill="#0f172a" font-family="system-ui,Segoe UI,sans-serif" font-size="14" font-weight="700">$87.40</text>
  <rect x="512" y="236" width="256" height="56" rx="12" fill="#f8fafc" stroke="#e2e8f0"/>
  <text x="528" y="262" fill="#0f172a" font-family="system-ui,Segoe UI,sans-serif" font-size="13" font-weight="600">Gas</text>
  <text x="528" y="278" fill="#94a3b8" font-family="system-ui,Segoe UI,sans-serif" font-size="11">Shell</text>
  <text x="744" y="270" text-anchor="end" fill="#0f172a" font-family="system-ui,Segoe UI,sans-serif" font-size="14" font-weight="700">$42.00</text>
  <rect x="512" y="304" width="256" height="56" rx="12" fill="#ecfdf5" stroke="#6ee7b7"/>
  <text x="528" y="330" fill="#0f172a" font-family="system-ui,Segoe UI,sans-serif" font-size="13" font-weight="600">Salary</text>
  <text x="744" y="338" text-anchor="end" fill="#059669" font-family="system-ui,Segoe UI,sans-serif" font-size="14" font-weight="700">+$2,400</text>
  <circle cx="640" cy="420" r="36" fill="#149184" opacity="0.2"/>
  <path d="M625 420h30M640 405v30" stroke="#149184" stroke-width="3" stroke-linecap="round"/>
</svg>
