<svg xmlns="http://www.w3.org/2000/svg" viewBox="0 0 900 675" role="img" aria-labelledby="t5">
  <title id="t5">Sync across devices: start solo, scale later</title>
  <rect width="900" height="675" fill="#f8fafc"/>
  <g transform="translate(140, 120)">
    <rect width="240" height="440" rx="32" fill="#1e293b"/>
    <rect x="12" y="36" width="216" height="392" rx="24" fill="#fff"/>
    <rect x="12" y="36" width="216" height="44" fill="#149184"/>
    <text x="120" y="64" text-anchor="middle" fill="#fff" font-family="system-ui,sans-serif" font-size="12" font-weight="700">Mobile capture</text>
    <rect x="28" y="100" width="184" height="48" rx="10" fill="#f1f5f9"/>
    <text x="40" y="130" fill="#0f172a" font-family="system-ui,sans-serif" font-size="12" font-weight="600">Receipt scanned</text>
  </g>
  <g transform="translate(520, 160)">
    <rect width="240" height="440" rx="32" fill="#1e293b"/>
    <rect x="12" y="36" width="216" height="392" rx="24" fill="#fff"/>
    <rect x="12" y="36" width="216" height="44" fill="#0f766e"/>
    <text x="120" y="64" text-anchor="middle" fill="#fff" font-family="system-ui,sans-serif" font-size="12" font-weight="700">Web review</text>
    <rect x="28" y="100" width="184" height="120" rx="10" fill="#f8fafc" stroke="#e2e8f0"/>
    <rect x="40" y="118" width="100" height="8" rx="2" fill="#cbd5e1"/>
    <rect x="40" y="134" width="80" height="8" rx="2" fill="#e2e8f0"/>
    <rect x="40" y="150" width="90" height="8" rx="2" fill="#e2e8f0"/>
  </g>
  <path d="M380 340 Q450 280 520 340" fill="none" stroke="#149184" stroke-width="3" stroke-dasharray="8 6"/>
  <polygon points="515,332 530,340 518,348" fill="#149184"/>
  <path d="M520 400 Q450 460 380 400" fill="none" stroke="#94a3b8" stroke-width="3" stroke-dasharray="8 6"/>
  <polygon points="385,408 370,400 382,392" fill="#94a3b8"/>
  <text x="450" y="380" text-anchor="middle" fill="#475569" font-family="system-ui,sans-serif" font-size="12" font-weight="600">Real-time sync</text>
</svg>
