<svg xmlns="http://www.w3.org/2000/svg" viewBox="0 0 900 675" role="img" aria-labelledby="tc">
  <title id="tc">AI finance coach chat grounded in your real spending</title>
  <rect width="900" height="675" fill="#f8fafc"/>
  <rect x="180" y="60" width="540" height="555" rx="24" fill="#fff" stroke="#e2e8f0" stroke-width="2"/>
  <rect x="180" y="60" width="540" height="56" rx="24" fill="#149184"/>
  <rect x="180" y="92" width="540" height="24" fill="#149184"/>
  <text x="210" y="98" fill="#fff" font-family="system-ui,sans-serif" font-size="16" font-weight="700">Finance coach</text>
  <text x="210" y="118" fill="#99f6e4" font-family="system-ui,sans-serif" font-size="12">Answers from your ledger</text>
  <rect x="220" y="140" width="360" height="72" rx="16" fill="#f1f5f9"/>
  <text x="240" y="172" fill="#0f172a" font-family="system-ui,sans-serif" font-size="13">Where am I overspending this month?</text>
  <text x="240" y="192" fill="#64748b" font-family="system-ui,sans-serif" font-size="11">You</text>
  <rect x="280" y="230" width="400" height="100" rx="16" fill="#ecfdf5" stroke="#6ee7b7"/>
  <text x="300" y="262" fill="#0f172a" font-family="system-ui,sans-serif" font-size="13">Dining is up 18% vs last month. Subscriptions</text>
  <text x="300" y="282" fill="#0f172a" font-family="system-ui,sans-serif" font-size="13">show two similar charges same week - review?</text>
  <text x="300" y="308" fill="#059669" font-family="system-ui,sans-serif" font-size="11" font-weight="600">Coach</text>
  <rect x="220" y="350" width="320" height="56" rx="16" fill="#f1f5f9"/>
  <text x="240" y="384" fill="#0f172a" font-family="system-ui,sans-serif" font-size="13">Show me food vs transport</text>
  <rect x="220" y="428" width="460" height="92" rx="16" fill="#fff7ed" stroke="#fdba74"/>
  <text x="240" y="458" fill="#9a3412" font-family="system-ui,sans-serif" font-size="13">Food: $312 · Transport: $189</text>
  <text x="240" y="482" fill="#9a3412" font-family="system-ui,sans-serif" font-size="13">Want a weekly cap?</text>
  <text x="240" y="506" fill="#c2410c" font-family="system-ui,sans-serif" font-size="11" font-weight="600">Coach</text>
  <rect x="220" y="536" width="460" height="48" rx="24" fill="#fff" stroke="#cbd5e1"/>
  <text x="240" y="566" fill="#94a3b8" font-family="system-ui,sans-serif" font-size="13">Ask anything about your spending...</text>
</svg>
