<svg xmlns="http://www.w3.org/2000/svg" viewBox="0 0 640 640" role="img" aria-labelledby="heroTitle">
  <title id="heroTitle">Receipt Cycle spending overview on a phone</title>
  <defs>
    <radialGradient id="spot" cx="50%" cy="42%" r="55%">
      <stop offset="0%" style="stop-color:#149184;stop-opacity:0.35"/>
      <stop offset="55%" style="stop-color:#0a0a0a;stop-opacity:0"/>
    </radialGradient>
    <linearGradient id="glow" x1="0%" y1="0%" x2="100%" y2="100%">
      <stop offset="0%" style="stop-color:#99f6e4;stop-opacity:0.25"/>
      <stop offset="100%" style="stop-color:#fed7aa;stop-opacity:0.15"/>
    </linearGradient>
    <filter id="shadow" x="-20%" y="-20%" width="140%" height="140%">
      <feDropShadow dx="0" dy="16" stdDeviation="28" flood-opacity="0.45"/>
    </filter>
  </defs>
  <rect width="640" height="640" fill="#0a0a0a"/>
  <rect width="640" height="640" fill="url(#spot)"/>
  <ellipse cx="320" cy="330" rx="280" ry="260" fill="url(#glow)"/>
  <g filter="url(#shadow)">
    <rect x="175" y="72" width="290" height="496" rx="44" fill="#1e293b"/>
    <rect x="185" y="92" width="270" height="456" rx="32" fill="#f8fafc"/>
  </g>
  <text x="210" y="118" fill="#64748b" font-family="system-ui,Segoe UI,sans-serif" font-size="13" font-weight="600">9:41</text>
  <rect x="298" y="100" width="84" height="24" rx="12" fill="#1e293b"/>
  <rect x="195" y="138" width="250" height="52" fill="#149184"/>
  <circle cx="224" cy="164" r="14" fill="#fff" opacity="0.95"/>
  <rect x="218" y="158" width="12" height="2" rx="1" fill="#cbd5e1"/>
  <rect x="218" y="163" width="10" height="2" rx="1" fill="#cbd5e1"/>
  <rect x="218" y="168" width="8" height="2" rx="1" fill="#cbd5e1"/>
  <text x="248" y="170" fill="#fff" font-family="system-ui,Segoe UI,sans-serif" font-size="15" font-weight="700">Receipt Cycle</text>
  <text x="320" y="238" text-anchor="middle" fill="#0f172a" font-family="system-ui,Segoe UI,sans-serif" font-size="36" font-weight="800">$568.97</text>
  <text x="320" y="262" text-anchor="middle" fill="#64748b" font-family="system-ui,Segoe UI,sans-serif" font-size="13">This month | Personal</text>
  <rect x="210" y="288" width="56" height="100" rx="14" fill="#fb923c" opacity="0.9"/>
  <rect x="282" y="308" width="56" height="80" rx="14" fill="#38bdf8" opacity="0.9"/>
  <rect x="354" y="318" width="56" height="70" rx="14" fill="#f472b6" opacity="0.85"/>
  <rect x="426" y="298" width="56" height="90" rx="14" fill="#facc15" opacity="0.85"/>
  <text x="238" y="408" text-anchor="middle" fill="#64748b" font-family="system-ui,Segoe UI,sans-serif" font-size="11">Food</text>
  <text x="310" y="408" text-anchor="middle" fill="#64748b" font-family="system-ui,Segoe UI,sans-serif" font-size="11">Fun</text>
  <text x="382" y="408" text-anchor="middle" fill="#64748b" font-family="system-ui,Segoe UI,sans-serif" font-size="11">Shop</text>
  <text x="454" y="408" text-anchor="middle" fill="#64748b" font-family="system-ui,Segoe UI,sans-serif" font-size="11">Bills</text>
  <rect x="200" y="428" width="240" height="48" rx="12" fill="#fff" stroke="#e2e8f0"/>
  <text x="216" y="448" fill="#0f172a" font-family="system-ui,Segoe UI,sans-serif" font-size="13" font-weight="600">Coffee | Food</text>
  <text x="216" y="464" fill="#94a3b8" font-family="system-ui,Segoe UI,sans-serif" font-size="11">Today</text>
  <text x="424" y="456" text-anchor="end" fill="#0f172a" font-family="system-ui,Segoe UI,sans-serif" font-size="14" font-weight="700">$4.50</text>
  <circle cx="320" cy="512" r="28" fill="#ea580c"/>
  <path d="M308 498v20M320 498v20M332 498v20" stroke="#fff" stroke-width="2.5" stroke-linecap="round"/>
</svg>
