<svg xmlns="http://www.w3.org/2000/svg" viewBox="0 0 900 675" role="img" aria-labelledby="tv">
  <title id="tv">Voice entry: speak a purchase, AI fills the transaction</title>
  <defs>
    <linearGradient id="vg" x1="0" y1="0" x2="1" y2="1">
      <stop offset="0%" style="stop-color:#be123c"/>
      <stop offset="50%" style="stop-color:#7c3aed"/>
      <stop offset="100%" style="stop-color:#0ea5e9"/>
    </linearGradient>
  </defs>
  <rect width="900" height="675" fill="#0f172a"/>
  <ellipse cx="450" cy="360" rx="380" ry="240" fill="#149184" opacity="0.15"/>
  <g transform="translate(260, 80)">
    <rect width="380" height="520" rx="40" fill="#1e293b"/>
    <rect x="16" y="48" width="348" height="456" rx="28" fill="#fff"/>
    <rect x="16" y="48" width="348" height="52" fill="#1e293b"/>
    <text x="190" y="84" text-anchor="middle" fill="#94a3b8" font-family="system-ui,sans-serif" font-size="13">9:41</text>
    <rect x="40" y="130" width="300" height="200" rx="20" fill="url(#vg)"/>
    <text x="190" y="210" text-anchor="middle" fill="#fff" font-family="system-ui,sans-serif" font-size="15" font-weight="600">Add expense by voice</text>
    <text x="190" y="250" text-anchor="middle" fill="#fff" font-family="system-ui,sans-serif" font-size="13" opacity="0.95">24 dollars gas at Shell</text>
    <text x="190" y="278" text-anchor="middle" fill="#e2e8f0" font-family="system-ui,sans-serif" font-size="12">Tap check to save</text>
    <circle cx="100" cy="300" r="22" fill="#22c55e"/>
    <path d="M92 300l6 6 14-14" fill="none" stroke="#fff" stroke-width="3" stroke-linecap="round"/>
    <text x="190" y="380" text-anchor="middle" fill="#64748b" font-family="system-ui,sans-serif" font-size="12">Amount Merchant  Category</text>
    <rect x="60" y="400" width="260" height="44" rx="12" fill="#f1f5f9"/>
    <text x="80" y="428" fill="#0f172a" font-family="system-ui,sans-serif" font-size="14" font-weight="700">$24.00  Shell  Transport</text>
    <circle cx="190" cy="480" r="32" fill="#ea580c"/>
    <circle cx="190" cy="480" r="12" fill="#fff" opacity="0.9"/>
  </g>
</svg>
